<mxfile host="65bd71144e">
    <diagram id="InwLOqW_9BEI804D7BsZ" name="Page-1">
        <mxGraphModel dx="1361" dy="660" grid="1" gridSize="10" guides="1" tooltips="1" connect="1" arrows="1" fold="1" page="1" pageScale="1" pageWidth="827" pageHeight="1169" math="0" shadow="0">
            <root>
                <mxCell id="0"/>
                <mxCell id="1" parent="0"/>
                <mxCell id="5" style="edgeStyle=none;html=1;entryX=0.5;entryY=0;entryDx=0;entryDy=0;strokeWidth=4;strokeColor=#5391FE;shadow=1;" parent="1" source="2" target="3" edge="1">
                    <mxGeometry relative="1" as="geometry">
                        <mxPoint x="400" y="280" as="targetPoint"/>
                    </mxGeometry>
                </mxCell>
                <mxCell id="2" value="&lt;font style=&quot;font-size: 15px&quot; color=&quot;#000000&quot;&gt;External Information&lt;/font&gt;" style="rounded=1;whiteSpace=wrap;html=1;fillColor=#CCE5FF;strokeWidth=2;strokeColor=#1BA1E2;shadow=1;" parent="1" vertex="1">
                    <mxGeometry x="320" y="170" width="160" height="60" as="geometry"/>
                </mxCell>
                <mxCell id="6" style="edgeStyle=none;html=1;entryX=0.5;entryY=0;entryDx=0;entryDy=0;strokeWidth=4;strokeColor=#5391FE;shadow=1;" parent="1" source="3" target="4" edge="1">
                    <mxGeometry relative="1" as="geometry"/>
                </mxCell>
                <mxCell id="3" value="&lt;font style=&quot;font-size: 15px&quot; color=&quot;#000000&quot;&gt;Data Mart&lt;/font&gt;" style="rounded=1;whiteSpace=wrap;html=1;fillColor=#CCE5FF;perimeterSpacing=0;strokeWidth=2;strokeColor=#1BA1E2;shadow=1;" parent="1" vertex="1">
                    <mxGeometry x="320" y="290" width="160" height="60" as="geometry"/>
                </mxCell>
                <mxCell id="4" value="&lt;font style=&quot;font-size: 15px&quot; color=&quot;#000000&quot;&gt;Reporting&lt;/font&gt;" style="rounded=1;whiteSpace=wrap;html=1;fontColor=#ffffff;fillColor=#CCE5FF;strokeColor=#1BA1E2;strokeWidth=2;shadow=1;" parent="1" vertex="1">
                    <mxGeometry x="320" y="410" width="160" height="60" as="geometry"/>
                </mxCell>
            </root>
        </mxGraphModel>
    </diagram>
</mxfile>